<svg
  xmlns="http://www.w3.org/2000/svg"
  width="512"
  height="512"
  viewBox="0 0 64 64"
>
  <style>
    .icon {
      fill: none;
      stroke: #17191e;
      stroke-width: 3.2;
      stroke-linecap: round;
      stroke-linejoin: round;
    }
    @media (prefers-color-scheme: dark) {
      .icon { stroke: #f0f0f0 }
    }
  </style>
  <!-- left { -->
  <path class="icon" d="M18 14c0 0-6 0-6 6v5c0 3-3 5-5 7c2 2 5 4 5 7v5c0 6 6 6 6 6" />
  <!-- right } -->
  <path class="icon" d="M46 14c0 0 6 0 6 6v5c0 3 3 5 5 7c-2 2-5 4-5 7v5c0 6-6 6-6 6" />
  <!-- d -->
  <path class="icon" d="M37 18v28 M37 36c0 4-3 7-6 7s-6-3-6-7s3-7 6-7s6 3 6 7z" />
</svg>
